<?xml version="1.0" encoding="UTF-8"?>
<svg xmlns="http://www.w3.org/2000/svg" id="Layer_3" data-name="Layer 3" viewBox="0 0 64 64" width="512" height="512"><path d="M32,1A31,31,0,1,0,63,32,31.035,31.035,0,0,0,32,1Zm0,60c-5.008,0-9.7-5.054-12.468-13H44.468C41.705,55.946,37.008,61,32,61ZM23,46H18.9q-.282-.977-.527-2H45.63q-.245,1.023-.527,2ZM3.025,33h10.7A5.93,5.93,0,0,0,11,38a6.006,6.006,0,0,0,5.307,5.957Q16.544,45,16.817,46H6.614A28.8,28.8,0,0,1,3.025,33ZM32,3c4.23,0,8.078,3.466,10.819,9H21.191C23.977,6.393,27.861,3,32,3ZM43.723,14a44.52,44.52,0,0,1,2.945,11.977A8.968,8.968,0,0,0,40,23a8.874,8.874,0,0,0-2.883.479,11.972,11.972,0,0,0-18.35-5.032A38.594,38.594,0,0,1,20.278,14ZM47,42H36V36h2a1,1,0,0,0,.759-1.65l-6-7a1.031,1.031,0,0,0-1.518,0l-6,7A1,1,0,0,0,26,36h2v6H17a3.99,3.99,0,0,1-.6-7.936,1,1,0,0,0,.737-1.451A9.87,9.87,0,0,1,16,28a10,10,0,0,1,19.567-2.907,1,1,0,0,0,1.393.61A6.92,6.92,0,0,1,40,25a6.946,6.946,0,0,1,6.926,7.958,1,1,0,0,0,.808,1.118A4,4,0,0,1,47,42ZM29,34h-.826L32,29.536,35.826,34H35a1,1,0,0,0-1,1v7H30V35A1,1,0,0,0,29,34ZM16.023,21.343A11.878,11.878,0,0,0,14.392,31H3.025A28.847,28.847,0,0,1,9.288,14h8.833A44.651,44.651,0,0,0,16.023,21.343Zm31.67,22.614A5.979,5.979,0,0,0,50.276,33h10.7a28.8,28.8,0,0,1-3.589,13h-10.2Q47.457,45,47.693,43.957ZM48.987,31A49.954,49.954,0,0,0,45.9,14h8.815a28.847,28.847,0,0,1,6.263,17ZM52.97,12H45.057a23.328,23.328,0,0,0-5.752-8.067A29.019,29.019,0,0,1,52.97,12ZM24.7,3.932A23.094,23.094,0,0,0,18.959,12H11.03A29.013,29.013,0,0,1,24.7,3.932ZM7.829,48h9.586c1.742,5.338,4.294,9.506,7.319,12.078A29.1,29.1,0,0,1,7.829,48ZM39.266,60.078c3.025-2.572,5.577-6.74,7.319-12.078h9.586A29.1,29.1,0,0,1,39.266,60.078Z"/></svg>
